# xmcd
# 
# Track frame offsets:
#     150
#     19937
#     27180
#     40500
#     60112
#     83437
#     104512
#     126450
#     142987
#     167312
#     187912
#     209475
#     233287
#     239632
#     253822
#     259505
#     263755
#     279787
#     310687
# 
# Disc length: 4505
# 
# Revision: 0
# Processed by: cddbd v1.5.2PL0 Copyright (c) Steve Scherf et al.
# Submitted via: BonkEnc v1.0.8
# 
DISCID=eb119713
DTITLE=聖飢魔II - 1999 BLACK LIST
DYEAR=1999
DGENRE=ヘヴィメタル
TTITLE0=1999 SECRET OBJECT
TTITLE1=聖飢魔II ミサ曲第II番「創世記」
TTITLE2=地獄の皇太子
TTITLE3=蝋人形の館 '99
TTITLE4=MASQUERADE
TTITLE5=真昼の月 ～MOON AT MID DAY～
TTITLE6=サクラちってサクラ咲いて
TTITLE7=敗れざる者たち
TTITLE8=BRAND NEW SONG
TTITLE9=SAVE YOUR SOUL ～美しきクリシェに背を向けて～
TTITLE10=HOLY BLOOD ～闘いの血統～
TTITLE11=FIRE AFTER FIRE
TTITLE12=悪魔組曲 作品666番 変ニ短調  序曲 - 心の叫び
TTITLE13=悪魔組曲 作品666番 変ニ短調  第1楽章 - STORMY NIGHT
TTITLE14=悪魔組曲 作品666番 変ニ短調  第2楽章 - 悪魔の穴
TTITLE15=悪魔組曲 作品666番 変ニ短調  第3楽章 - KILL THE KING GHIDRAH
TTITLE16=悪魔組曲 作品666番 変ニ短調  第4楽章 - DEAD SYMPHONY
TTITLE17=嵐の予感
TTITLE18=EL. DORADO
EXTD=YEAR: 1999
EXTT0=
EXTT1=
EXTT2=
EXTT3=
EXTT4=
EXTT5=
EXTT6=
EXTT7=
EXTT8=
EXTT9=
EXTT10=
EXTT11=
EXTT12=
EXTT13=
EXTT14=
EXTT15=
EXTT16=
EXTT17=
EXTT18=
PLAYORDER=
